<?xml version="1.0" standalone="no"?>
<!DOCTYPE svg PUBLIC "-//W3C//DTD SVG 20010904//EN"
 "http://www.w3.org/TR/2001/REC-SVG-20010904/DTD/svg10.dtd">
<svg version="1.0" xmlns="http://www.w3.org/2000/svg"
 width="146.000000pt" height="146.000000pt" viewBox="0 0 146.000000 146.000000"
 preserveAspectRatio="xMidYMid meet">
<metadata>
Created by potrace 1.14, written by Peter Selinger 2001-2017
</metadata>
<g transform="translate(0.000000,146.000000) scale(0.100000,-0.100000)"
fill="#000000" stroke="none">
<path d="M207 1104 c-4 -4 -7 -32 -7 -63 0 -59 -8 -101 -19 -101 -3 0 -6 22
-6 48 0 50 -31 115 -44 93 -5 -8 -7 -153 -2 -193 1 -5 12 -8 24 -8 16 0 28 -9
35 -25 15 -31 27 -32 48 -1 8 14 25 26 37 28 21 3 22 9 25 97 1 52 -1 98 -6
103 -24 24 -62 -101 -40 -129 7 -9 7 -13 -1 -13 -18 0 -32 49 -28 95 4 45 -4
80 -16 69z m73 -101 c0 -33 -3 -44 -11 -36 -9 9 -3 83 7 83 2 0 4 -21 4 -47z
m-120 -3 c0 -16 -4 -31 -9 -35 -6 -3 -10 12 -9 35 0 22 4 37 9 34 5 -3 9 -18
9 -34z m60 -66 c0 -8 -5 -12 -10 -9 -6 4 -8 11 -5 16 9 14 15 11 15 -7z m60
-14 c0 -11 -7 -20 -15 -20 -18 0 -19 6 -2 25 16 19 17 18 17 -5z m-112 -8 c2
-7 -3 -12 -12 -12 -9 0 -16 7 -16 16 0 17 22 14 28 -4z"/>
<path d="M379 1103 c-1 -4 -2 -173 -3 -376 -1 -241 2 -366 9 -364 12 4 14 736
3 744 -5 2 -9 1 -9 -4z"/>
<path d="M479 1096 c0 -9 -1 -36 -1 -61 0 -70 1 -77 13 -69 6 3 9 15 6 25 -3
11 -1 19 4 19 5 0 9 -9 9 -19 0 -32 19 -34 26 -4 10 48 12 49 13 11 1 -21 6
-38 11 -38 6 0 10 32 10 76 0 89 -18 98 -36 18 l-11 -49 -9 49 c-9 47 -33 76
-35 42z"/>
<path d="M580 1041 c0 -39 5 -73 10 -76 6 -4 10 22 10 69 0 44 -4 76 -10 76
-6 0 -10 -30 -10 -69z"/>
<path d="M618 1098 c-8 -25 -3 -123 7 -125 5 -2 9 11 9 28 -1 22 3 29 15 27 9
-2 16 -10 17 -18 3 -46 5 -53 11 -46 11 11 13 146 2 146 -8 0 -14 -23 -10 -44
2 -11 -20 -26 -30 -20 -4 2 -5 17 -4 34 3 30 -9 42 -17 18z"/>
<path d="M700 1034 c0 -47 4 -73 10 -69 6 3 10 37 10 76 0 39 -4 69 -10 69 -6
0 -10 -32 -10 -76z"/>
<path d="M736 1094 c-12 -32 -6 -111 10 -125 20 -17 49 0 50 30 2 27 -12 28
-19 1 -11 -41 -27 -20 -27 35 0 42 3 55 15 55 8 0 15 -7 15 -15 0 -8 5 -15 10
-15 14 0 13 23 -2 38 -17 17 -45 15 -52 -4z"/>
<path d="M813 1096 c13 -10 17 -28 17 -75 0 -34 4 -61 10 -61 6 0 10 28 10 64
0 49 4 65 16 70 9 3 16 6 17 6 1 0 2 -30 2 -67 l0 -68 34 -3 c21 -2 31 0 26 7
-3 6 -14 11 -23 11 -27 0 -25 39 1 50 21 8 20 11 -5 14 -6 0 -13 11 -14 24 -3
18 1 22 21 22 14 0 25 5 25 10 0 6 -32 10 -77 10 -67 -1 -76 -3 -60 -14z"/>
<path d="M960 1035 c0 -52 3 -74 11 -69 6 3 8 15 6 26 -4 14 1 22 19 28 13 5
24 15 24 21 0 7 3 9 7 5 4 -4 8 -21 8 -38 0 -38 26 -58 49 -39 18 15 22 51 6
51 -5 0 -10 -9 -10 -21 0 -12 -5 -19 -12 -17 -8 3 -14 26 -16 56 -2 42 0 52
12 52 9 0 16 -7 16 -15 0 -8 5 -15 10 -15 11 0 13 11 4 34 -3 9 -17 16 -30 16
-17 0 -25 -7 -31 -27 l-7 -28 -6 25 c-4 18 -14 26 -33 28 l-27 3 0 -76z m44
38 c9 -22 -12 -43 -23 -24 -10 15 -4 41 9 41 4 0 11 -8 14 -17z"/>
<path d="M1110 1100 c0 -5 5 -10 10 -10 6 0 10 -28 10 -65 0 -37 4 -65 10 -65
6 0 10 28 10 65 0 57 2 65 19 65 16 0 18 -8 16 -55 -2 -71 5 -82 42 -69 15 6
27 16 25 22 -1 7 2 12 8 12 6 0 10 -6 10 -14 0 -18 39 -31 52 -18 13 13 17
102 6 125 -10 20 -43 23 -55 5 -4 -7 -8 -26 -9 -43 -3 -52 -7 -52 -13 0 l-6
50 -67 3 c-41 1 -68 -2 -68 -8z m120 -31 c0 -11 -5 -19 -12 -17 -17 6 -19 38
-2 38 8 0 14 -9 14 -21z m85 -27 c1 -46 -7 -68 -23 -58 -8 5 -9 46 -3 99 1 5
6 7 13 5 7 -3 13 -23 13 -46z m-78 -27 c4 -13 -14 -41 -22 -34 -3 4 -8 16 -10
28 -3 16 0 21 12 19 9 -2 18 -7 20 -13z"/>
<path d="M483 894 c-9 -25 -10 -97 -1 -116 10 -20 43 -24 54 -6 9 14 8 113 -1
128 -10 16 -45 12 -52 -6z m38 -26 c0 -13 2 -33 3 -45 3 -30 -11 -53 -22 -36
-7 10 -8 64 -3 96 3 17 21 5 22 -15z"/>
<path d="M560 904 c0 -6 5 -25 11 -42 8 -25 8 -38 -4 -62 -19 -37 -3 -51 16
-15 l13 26 12 -27 c17 -36 27 -23 13 17 -8 24 -8 42 0 67 14 43 5 52 -15 15
-8 -15 -15 -23 -16 -17 0 14 -29 52 -30 38z"/>
<path d="M653 898 c-14 -18 -15 -95 -2 -119 6 -13 18 -19 32 -17 20 3 22 10
25 67 2 45 -1 67 -10 72 -19 12 -34 11 -45 -3z m37 -64 c0 -40 -4 -55 -12 -52
-14 5 -23 70 -14 94 12 32 26 11 26 -42z"/>
<path d="M729 908 c-7 -16 -5 -139 2 -144 5 -3 9 8 9 25 0 23 5 30 23 33 17 2
23 11 25 37 4 35 -9 51 -40 51 -10 0 -18 -1 -19 -2z m39 -43 c-2 -14 -7 -26
-13 -26 -5 0 -11 12 -13 26 -2 18 1 25 13 25 12 0 15 -7 13 -25z"/>
<path d="M813 903 c-14 -5 -18 -98 -7 -127 7 -19 38 -21 51 -3 13 15 13 96 1
120 -9 17 -22 20 -45 10z m32 -68 c0 -30 -5 -50 -12 -52 -10 -4 -13 11 -13 52
0 41 3 56 13 53 7 -3 12 -23 12 -53z"/>
<path d="M880 836 c0 -75 16 -106 22 -44 4 46 28 49 28 4 0 -20 5 -36 10 -36
6 0 10 30 10 69 0 39 -4 73 -10 76 -6 4 -10 -8 -10 -29 0 -25 -4 -36 -15 -36
-10 0 -15 10 -15 29 0 17 -4 33 -10 36 -6 4 -10 -22 -10 -69z"/>
<path d="M967 900 c-10 -22 -3 -135 8 -134 6 1 15 19 21 40 11 41 24 36 18 -8
-1 -15 2 -30 7 -33 10 -7 11 4 11 80 0 64 0 65 -12 65 -5 0 -15 -19 -22 -42
l-13 -43 -6 45 c-3 28 -8 39 -12 30z"/>
<path d="M493 703 c-7 -2 -13 -14 -13 -26 1 -20 2 -21 14 -4 7 9 16 17 20 17
10 0 7 -38 -4 -45 -6 -4 -4 -15 6 -30 10 -15 12 -25 5 -30 -14 -8 -33 4 -26
16 4 5 1 9 -5 9 -22 0 -6 -45 17 -48 22 -3 49 29 36 42 -3 3 -6 25 -5 48 2 48
-12 65 -45 51z"/>
<path d="M577 703 c-4 -3 -7 -28 -7 -54 0 -27 -5 -60 -12 -74 -6 -14 -8 -28
-3 -33 4 -4 10 -1 12 6 3 6 18 12 34 12 20 0 28 -4 23 -11 -4 -7 -1 -10 7 -7
8 3 12 14 11 24 -2 10 -5 46 -5 78 -2 56 -4 60 -28 63 -14 2 -29 0 -32 -4z
m38 -71 c1 -41 -2 -52 -15 -52 -12 0 -14 11 -12 56 5 70 26 67 27 -4z"/>
<path d="M667 695 c-10 -10 -14 -31 -13 -65 3 -56 14 -74 42 -68 16 3 20 14
22 67 2 45 -1 67 -10 72 -18 12 -24 11 -41 -6z m34 -37 c6 -47 -1 -80 -14 -75
-13 4 -22 70 -13 93 9 25 24 15 27 -18z"/>
<path d="M737 696 c-9 -26 -1 -130 10 -133 7 -3 11 3 8 15 -4 23 4 36 28 45
12 4 17 17 17 42 0 19 -3 36 -7 36 -35 6 -53 5 -56 -5z m41 -33 c-4 -38 -26
-41 -24 -3 0 18 6 30 14 30 9 0 12 -10 10 -27z"/>
<path d="M821 696 c-7 -9 -11 -38 -9 -73 3 -53 5 -58 27 -61 31 -5 41 12 41
75 0 42 -4 54 -19 63 -25 13 -26 13 -40 -4z m39 -67 c0 -37 -4 -49 -15 -49
-11 0 -15 12 -15 48 0 27 3 52 6 55 15 14 24 -7 24 -54z"/>
<path d="M890 634 c0 -70 1 -74 23 -74 39 0 47 12 44 73 -3 63 -6 69 -42 72
-25 3 -25 3 -25 -71z m44 40 c9 -22 8 -24 -9 -24 -8 0 -15 9 -15 20 0 24 15
27 24 4z m4 -72 c2 -15 -2 -22 -12 -22 -11 0 -16 9 -16 26 0 31 23 28 28 -4z"/>
<path d="M977 704 c-4 -4 -7 -14 -7 -23 0 -11 3 -12 11 -4 6 6 10 16 7 23 -2
6 -7 8 -11 4z"/>
<path d="M1019 700 c-11 -7 -16 -26 -17 -75 0 -36 4 -65 9 -65 5 0 9 14 9 30
0 20 5 30 15 30 10 0 15 -10 15 -30 0 -16 5 -30 10 -30 6 0 10 31 10 73 0 62
-3 73 -18 74 -9 1 -24 -3 -33 -7z m31 -35 c0 -26 -14 -33 -25 -15 -9 14 1 40
15 40 5 0 10 -11 10 -25z"/>
<path d="M806 451 c2 -89 3 -91 14 -91 5 0 8 32 7 75 -2 41 1 75 5 75 4 0 8
-34 8 -75 0 -43 4 -75 10 -75 6 0 10 14 10 30 0 20 5 30 15 30 10 0 15 -10 15
-30 0 -16 5 -30 10 -30 6 0 10 30 10 69 0 39 -4 73 -10 76 -6 4 -10 -8 -10
-29 0 -25 -4 -36 -15 -36 -10 0 -15 10 -15 29 0 30 -15 48 -40 48 -12 0 -15
-14 -14 -66z"/>
<path d="M478 505 c-4 -4 0 -25 8 -47 16 -47 18 -78 4 -78 -5 0 -10 -5 -10
-11 0 -6 7 -9 17 -7 16 3 34 42 48 106 9 43 -12 43 -23 0 -8 -29 -10 -30 -17
-13 -17 49 -21 56 -27 50z"/>
<path d="M560 436 c0 -44 4 -76 10 -76 6 0 10 11 10 25 0 14 4 25 9 25 5 0 12
-11 15 -25 4 -14 11 -25 16 -25 14 0 12 12 -6 48 -14 29 -14 34 0 54 9 12 16
26 16 30 0 17 -16 7 -32 -19 l-17 -28 -1 27 c0 15 -4 30 -10 33 -6 4 -10 -22
-10 -69z"/>
<path d="M649 502 c-5 -31 -2 -135 4 -139 4 -2 8 2 8 9 1 7 2 20 3 28 0 8 6
15 11 15 23 1 35 18 35 51 0 20 -5 34 -12 35 -7 0 -21 2 -30 4 -10 2 -18 0
-19 -3z m39 -48 c-1 -9 -8 -19 -14 -21 -11 -4 -16 22 -8 46 7 21 27 -2 22 -25z"/>
<path d="M746 499 c-9 -24 -25 -103 -26 -121 0 -10 5 -18 10 -18 6 0 10 7 10
15 0 20 20 19 36 -2 20 -29 23 -12 9 56 -14 66 -30 96 -39 70z m18 -91 c-12
-19 -20 -5 -15 30 l4 37 8 -29 c5 -16 6 -33 3 -38z"/>
<path d="M928 504 c-5 -4 -8 -38 -8 -76 0 -79 17 -89 36 -23 12 44 22 37 19
-12 -1 -18 2 -33 7 -33 4 0 8 32 8 71 0 77 -16 91 -34 28 l-10 -34 -6 43 c-3
24 -8 40 -12 36z"/>
</g>
</svg>
