<?xml version="1.0" standalone="no"?>
<!DOCTYPE svg PUBLIC "-//W3C//DTD SVG 20010904//EN"
 "http://www.w3.org/TR/2001/REC-SVG-20010904/DTD/svg10.dtd">
<svg version="1.0" xmlns="http://www.w3.org/2000/svg"
 width="1200.000000pt" height="1200.000000pt" viewBox="0 0 1200.000000 1200.000000"
 preserveAspectRatio="xMidYMid meet">
<metadata>
Created by potrace 1.14, written by Peter Selinger 2001-2017
</metadata>
<g transform="translate(0.000000,1200.000000) scale(0.100000,-0.100000)"
fill="#000000" stroke="none">
<path d="M1178 9502 c-58 -87 -63 -119 -59 -342 6 -365 6 -654 -1 -700 -26
-176 -96 -375 -179 -508 -27 -44 -125 -18 -165 42 -22 34 -22 95 0 128 22 33
96 71 121 62 16 -7 17 -1 11 67 -3 41 -8 85 -10 99 -3 14 -7 54 -11 90 -3 36
-8 74 -10 85 -2 11 -7 48 -10 82 -15 163 -27 220 -67 323 -57 144 -182 302
-305 385 -29 19 -55 35 -58 35 -2 0 -5 -421 -4 -935 l0 -935 37 -1 c20 0 118
0 217 -1 l179 0 16 -61 c35 -133 112 -254 221 -347 35 -30 72 -65 83 -78 l18
-23 57 52 c153 141 174 165 224 264 23 46 60 155 61 180 1 6 73 11 191 12 105
1 202 2 218 2 l27 1 0 936 0 935 -42 -25 c-201 -120 -361 -388 -383 -641 -3
-38 -8 -81 -10 -95 -2 -14 -9 -74 -15 -135 -6 -60 -13 -121 -16 -135 -2 -14
-6 -51 -10 -82 -6 -53 -5 -57 13 -54 25 5 92 -25 116 -51 46 -52 23 -149 -44
-185 -52 -28 -93 -24 -119 12 -27 39 -92 178 -118 256 -65 191 -74 333 -58
859 7 210 6 259 -7 308 -14 54 -57 140 -76 151 -5 3 -20 -11 -33 -32z m-528
-567 c44 -90 66 -164 75 -257 3 -35 8 -74 10 -88 5 -32 11 -81 26 -205 10 -81
10 -100 -1 -103 -28 -10 -98 -83 -115 -122 -16 -37 -22 -41 -49 -38 l-31 3 0
473 -1 474 23 -29 c13 -15 41 -64 63 -108z m1200 -340 l0 -475 -32 4 c-18 2
-36 4 -40 5 -5 0 -8 9 -8 19 -1 24 -53 90 -95 119 -29 19 -34 29 -31 51 3 15
7 50 10 77 3 28 10 88 16 135 6 47 13 110 16 140 7 75 30 164 59 229 26 56 93
171 101 171 2 0 4 -214 4 -475z m-605 -470 c20 -55 53 -130 73 -167 20 -37 34
-69 31 -71 -37 -29 -132 -87 -141 -87 -7 0 -43 20 -80 45 l-67 45 43 87 c24
49 57 125 72 170 16 45 29 81 30 80 1 -1 19 -47 39 -102z m-599 -168 c14 -65
140 -157 215 -157 15 0 16 -5 9 -28 -4 -16 -11 -60 -15 -98 l-7 -70 -131 2
c-73 1 -137 2 -142 3 -7 1 -10 69 -11 189 0 180 1 187 21 193 34 9 54 -2 61
-34z m1204 -157 c0 -141 -3 -189 -12 -192 -7 -2 -71 -4 -143 -4 l-130 1 -10
85 c-6 47 -14 91 -18 98 -6 8 -2 12 12 12 38 0 127 40 160 72 18 18 43 53 56
78 22 43 26 46 54 42 l31 -4 0 -188z m-779 -63 c32 -22 80 -109 67 -123 -3 -3
-28 -6 -55 -6 -93 -1 -102 1 -99 20 2 9 7 43 10 75 9 66 21 72 77 34z m343 -4
c3 -16 8 -49 12 -75 6 -53 11 -50 -71 -50 -87 0 -87 0 -80 25 16 52 39 88 68
106 44 29 64 27 71 -6z m-274 -386 l0 -130 -26 24 c-32 30 -94 155 -101 203
l-5 36 66 -1 66 -1 0 -131z m260 128 c12 -7 -24 -118 -54 -168 -26 -43 -61
-87 -69 -87 -2 0 -4 58 -3 129 l0 128 59 2 c32 1 62 -1 67 -4z"/>
<path d="M2746 9521 c-5 -9 -5 -6893 0 -6911 3 -12 20 -15 76 -15 l73 1 1
3454 c0 1900 -1 3460 -3 3466 -4 11 -141 15 -147 5z"/>
<path d="M5571 9514 c0 -11 3 -14 6 -6 3 7 2 16 -1 19 -3 4 -6 -2 -5 -13z"/>
<path d="M5556 9478 c3 -5 10 -6 15 -3 13 9 11 12 -6 12 -8 0 -12 -4 -9 -9z"/>
<path d="M3910 9080 c0 -5 5 -10 11 -10 5 0 7 5 4 10 -3 6 -8 10 -11 10 -2 0
-4 -4 -4 -10z"/>
<path d="M3865 9060 c-3 -6 1 -7 9 -4 18 7 21 14 7 14 -6 0 -13 -4 -16 -10z"/>
<path d="M3880 9000 c-9 -6 -10 -10 -3 -10 6 0 15 5 18 10 8 12 4 12 -15 0z"/>
<path d="M6970 8219 c0 -5 5 -7 10 -4 6 3 10 8 10 11 0 2 -4 4 -10 4 -5 0 -10
-5 -10 -11z"/>
<path d="M3879 7663 c-113 -29 -184 -108 -204 -228 -3 -22 -6 -222 -6 -443 0
-434 4 -476 54 -547 64 -90 178 -132 305 -113 133 21 215 104 239 243 14 80 8
832 -6 885 -46 168 -200 250 -382 203z m165 -138 c19 -9 43 -34 57 -58 l24
-42 0 -420 c0 -400 -1 -422 -20 -459 -30 -60 -65 -81 -135 -81 -70 0 -105 21
-135 81 -19 37 -20 59 -20 459 0 406 1 421 21 455 43 73 132 101 208 65z"/>
<path d="M5450 7665 c-70 -14 -110 -36 -145 -77 -28 -33 -61 -99 -72 -141 -8
-34 -10 -805 -2 -865 21 -158 140 -258 299 -254 135 3 218 52 269 161 l26 56
3 434 c3 480 1 503 -61 588 -63 88 -185 126 -317 98z m167 -151 c15 -11 36
-38 47 -59 19 -37 20 -58 21 -429 0 -215 -3 -411 -8 -436 -13 -63 -49 -107
-98 -120 -59 -16 -126 -3 -158 30 -50 52 -52 82 -49 526 3 405 3 409 26 445
12 20 37 44 55 53 42 22 128 16 164 -10z"/>
<path d="M6870 7663 c-94 -24 -168 -101 -195 -203 -12 -45 -14 -133 -12 -480
3 -478 3 -479 78 -564 52 -59 122 -86 223 -86 155 0 247 67 289 209 13 45 16
120 16 456 1 444 -3 481 -60 565 -42 62 -83 87 -169 106 -47 11 -122 9 -170
-3z m170 -142 c19 -10 44 -34 55 -52 19 -33 20 -52 20 -464 0 -401 -1 -433
-19 -468 -25 -50 -75 -76 -143 -73 -66 3 -100 26 -126 84 -19 45 -20 63 -20
459 l1 412 23 43 c41 73 134 100 209 59z"/>
<path d="M4437 7662 c-25 -2 -37 -8 -34 -15 11 -26 118 -299 161 -412 26 -66
51 -129 56 -140 32 -68 35 -57 -96 -391 -68 -176 -129 -329 -134 -342 -10 -23
-10 -23 62 -20 l72 3 59 150 c32 83 78 204 104 270 25 66 49 124 52 128 7 7
43 -82 193 -475 l30 -78 78 0 78 0 -110 283 c-61 155 -120 309 -133 342 l-22
60 123 315 c67 173 121 316 119 318 -3 3 -82 5 -116 3 -11 -1 -28 -29 -49 -83
-18 -46 -40 -101 -50 -123 -9 -22 -21 -51 -25 -65 -4 -14 -13 -38 -20 -55 -7
-16 -28 -67 -46 -113 -17 -45 -33 -81 -34 -80 -7 7 -185 476 -185 485 0 29
-49 42 -133 35z"/>
<path d="M5993 7662 l-23 -3 0 -660 0 -659 75 0 75 0 0 260 0 260 90 1 c50 1
93 2 98 3 4 1 25 5 47 10 93 18 162 89 190 197 20 76 14 349 -9 418 -25 74
-87 135 -158 156 -49 14 -321 26 -385 17z m336 -148 c68 -27 76 -54 76 -256 0
-163 -2 -179 -21 -205 -33 -44 -69 -57 -171 -58 l-93 -2 0 267 0 268 86 0 c54
1 101 -5 123 -14z"/>
<path d="M7443 7662 c-18 -2 -33 -9 -33 -15 -1 -7 -2 -303 -3 -660 l-2 -647
75 0 75 0 -1 288 c0 158 1 292 3 297 2 6 64 10 161 10 l157 0 3 -298 2 -297
75 0 75 0 0 660 0 660 -25 1 c-14 0 -41 1 -60 1 -19 0 -42 -1 -50 -1 -13 -1
-15 -41 -15 -296 l0 -295 -52 -1 c-215 -2 -256 -1 -264 4 -5 3 -9 127 -9 292
0 158 -3 289 -8 292 -11 6 -62 9 -104 5z"/>
<path d="M8186 7655 c-8 -8 -10 -196 -8 -664 l2 -652 77 3 77 3 64 200 c93
292 252 786 262 815 5 15 9 -192 9 -497 l1 -523 64 0 c42 0 65 4 68 13 3 10 2
1246 -1 1297 -1 12 -16 15 -77 13 -42 -1 -80 -5 -85 -10 -8 -8 -143 -402 -260
-758 l-68 -210 -1 488 0 487 -27 1 c-16 0 -41 2 -57 3 -16 1 -34 -3 -40 -9z"/>
<path d="M3920 5802 c-158 -21 -239 -127 -245 -319 l-3 -93 68 0 67 0 5 89 c4
70 10 98 28 126 56 91 207 85 255 -10 16 -33 20 -60 20 -150 0 -98 -3 -114
-23 -148 -31 -49 -71 -68 -143 -70 -64 -2 -61 1 -61 -72 0 -67 -2 -65 57 -65
72 0 117 -23 146 -74 22 -38 24 -52 24 -176 0 -112 -3 -141 -19 -173 -26 -53
-83 -81 -147 -74 -103 12 -131 55 -137 213 l-4 111 -67 -1 -66 -1 -1 -98 c-3
-193 56 -302 185 -343 127 -40 257 -11 331 74 53 59 71 122 75 257 6 187 -25
280 -111 335 -39 25 -43 29 -25 35 32 10 92 76 114 125 30 69 30 243 -1 325
-44 115 -119 169 -247 177 -27 2 -61 2 -75 0z"/>
<path d="M5598 5805 c-2 -2 -21 -5 -43 -7 -91 -11 -174 -81 -210 -180 -18 -49
-20 -81 -21 -473 -1 -439 1 -468 44 -552 81 -158 359 -186 480 -48 36 40 58
79 69 121 4 16 8 223 9 459 2 390 1 435 -15 482 -43 125 -124 186 -264 197
-26 2 -48 2 -49 1z m96 -149 c40 -16 63 -46 77 -101 11 -40 15 -796 5 -843
-16 -73 -77 -122 -151 -122 -59 0 -106 29 -132 81 -22 44 -23 47 -20 469 l2
425 24 39 c38 61 120 83 195 52z"/>
<path d="M6995 5799 c-98 -19 -161 -68 -204 -159 l-26 -55 0 -450 c0 -417 1
-454 19 -499 57 -147 214 -213 389 -162 76 22 135 80 168 162 22 58 23 65 24
474 2 448 -2 494 -50 570 -60 94 -192 144 -320 119z m145 -147 c19 -11 43 -36
54 -58 20 -38 21 -55 21 -464 0 -393 -1 -428 -18 -462 -26 -52 -72 -77 -140
-75 -66 2 -101 24 -131 82 -19 37 -20 57 -20 450 0 427 2 450 43 499 39 46
131 59 191 28z"/>
<path d="M8262 5786 c-3 -5 -6 -47 -6 -93 l-1 -83 27 0 c16 0 28 -1 28 -3 0
-1 -9 -34 -20 -72 -25 -89 -25 -95 4 -95 29 0 32 3 72 102 25 62 31 92 32 161
l2 85 -66 4 c-36 1 -69 -1 -72 -6z"/>
<path d="M4571 5723 c-2 -38 -4 -90 -6 -118 -4 -77 -16 -300 -20 -400 -2 -49
-7 -139 -10 -200 -17 -310 -18 -314 -44 -365 -16 -31 -23 -35 -64 -38 l-47 -3
0 -155 0 -154 70 0 70 0 1 38 c0 20 1 61 0 90 l0 52 270 0 269 0 1 -32 c1 -18
1 -58 0 -89 l-2 -57 43 -3 c24 -2 57 -2 73 1 l31 5 0 153 0 152 -50 0 -51 0 1
595 0 595 -266 0 -267 0 -2 -67z m384 -595 l1 -528 -172 0 -171 0 23 48 c25
50 30 88 40 302 3 74 7 160 9 190 7 112 22 421 24 486 l1 32 123 -2 122 -1 0
-527z"/>
<path d="M6070 5130 l0 -660 74 0 74 0 -1 255 c0 140 1 257 4 259 2 2 56 6
119 8 173 8 246 49 291 167 20 50 22 76 22 231 0 155 -2 181 -21 230 -24 60
-51 97 -97 126 -56 36 -94 42 -281 44 l-184 1 0 -661z m378 503 c51 -38 57
-63 57 -248 0 -150 -2 -173 -19 -198 -32 -47 -71 -61 -176 -63 l-95 -2 2 222
c1 121 2 242 2 268 l1 47 100 -3 c82 -2 106 -6 128 -23z"/>
<path d="M7508 5778 c-3 -11 -2 -1274 1 -1301 1 -5 92 -7 204 -5 231 4 262 12
329 86 54 60 71 127 70 281 -2 189 -33 266 -129 315 l-46 23 29 10 c45 16 93
70 108 122 17 59 20 234 5 297 -22 88 -74 145 -156 169 -67 20 -409 22 -415 3z
m376 -141 c46 -30 58 -70 59 -186 0 -135 -14 -173 -75 -201 -32 -14 -66 -20
-129 -20 l-85 0 2 213 c0 116 2 213 3 214 0 1 46 1 100 -1 73 -2 106 -7 125
-19z m8 -564 c58 -33 73 -79 73 -228 -1 -209 -25 -237 -205 -240 l-106 -2 1
241 c1 133 3 244 3 247 1 4 47 5 102 4 75 -2 108 -8 132 -22z"/>
<path d="M8745 5781 c-56 -14 -111 -49 -137 -88 -47 -71 -53 -98 -52 -258 0
-133 2 -155 22 -200 29 -63 48 -84 95 -105 l39 -18 -43 -23 c-94 -53 -117
-122 -119 -355 -1 -170 -2 -183 -15 -236 l-7 -28 75 0 75 0 10 48 c6 26 11
120 12 208 0 89 5 175 9 192 24 83 77 113 202 116 l84 1 0 -282 0 -283 72 0
c40 0 73 3 74 8 0 4 1 300 1 657 l1 650 -184 2 c-101 0 -197 -2 -214 -6z m230
-126 c19 -4 20 -12 20 -245 l0 -241 -97 2 c-106 2 -142 15 -175 66 -15 22 -18
51 -20 164 -1 76 2 151 8 167 13 37 48 71 84 80 31 9 150 13 180 7z"/>
<path d="M8393 3905 c0 -8 4 -12 9 -9 5 3 6 10 3 15 -9 13 -12 11 -12 -6z"/>
<path d="M4477 2609 c7 -7 15 -10 18 -7 3 3 -2 9 -12 12 -14 6 -15 5 -6 -5z"/>
</g>
</svg>
